HIERARCHY
ROOT Hips
{
	OFFSET	0.000000	0.000000	0.000000
	CHANNELS 6 Xposition Yposition Zposition Zrotation Xrotation Yrotation
	JOINT LeftHip
	{
		OFFSET	4.740440	-3.195970	-0.322709
		CHANNELS 3 Zrotation Xrotation Yrotation
		JOINT LeftKnee
		{
			OFFSET	-1.605680	-15.592300	1.005510
			CHANNELS 3 Zrotation Xrotation Yrotation
			JOINT LeftAnkle
			{
				OFFSET	-0.632401	-16.421000	-1.413730
				CHANNELS 3 Zrotation Xrotation Yrotation
				End Site
				{
					OFFSET	0.008423	-3.021750	-1.660875
				}
			}
		}
	}
	JOINT RightHip
	{
		OFFSET	-4.740440	-3.195970	-0.322709
		CHANNELS 3 Zrotation Xrotation Yrotation
		JOINT RightKnee
		{
			OFFSET	1.605680	-15.592300	1.005510
			CHANNELS 3 Zrotation Xrotation Yrotation
			JOINT RightAnkle
			{
				OFFSET	0.632401	-16.421000	-1.413730
				CHANNELS 3 Zrotation Xrotation Yrotation
				End Site
				{
					OFFSET	-0.008423	-3.021750	-1.660875
				}
			}
		}
	}
	JOINT Chest
	{
		OFFSET	0.000000	3.468200	0.078401
		CHANNELS 3 Zrotation Xrotation Yrotation
		JOINT LeftCollar
		{
			OFFSET	3.857650	15.070700	-0.011583
			CHANNELS 3 Zrotation Xrotation Yrotation
			JOINT LeftShoulder
			{
				OFFSET	3.979720	-1.940530	-0.165223
				CHANNELS 3 Zrotation Xrotation Yrotation
				JOINT LeftElbow
				{
					OFFSET	0.615844	-10.986600	-0.673886
					CHANNELS 3 Zrotation Xrotation Yrotation
					JOINT LeftWrist
					{
						OFFSET	0.826843	-10.854500	1.034220
						CHANNELS 3 Zrotation Xrotation Yrotation
						End Site
						{
							OFFSET	-1.679080	-8.456540	0.936217
						}
					}
				}
			}
		}
		JOINT RightCollar
		{
			OFFSET	-3.857650	15.070700	-0.011583
			CHANNELS 3 Zrotation Xrotation Yrotation
			JOINT RightShoulder
			{
				OFFSET	-3.979720	-1.940530	-0.165223
				CHANNELS 3 Zrotation Xrotation Yrotation
				JOINT RightElbow
				{
					OFFSET	-0.615845	-10.986600	-0.673886
					CHANNELS 3 Zrotation Xrotation Yrotation
					JOINT RightWrist
					{
						OFFSET	-0.826843	-10.854500	1.034220
						CHANNELS 3 Zrotation Xrotation Yrotation
						End Site
						{
							OFFSET	1.679080	-8.456540	0.936217
						}
					}
				}
			}
		}
		JOINT Neck
		{
			OFFSET	0.000000	15.101400	0.055730
			CHANNELS 3 Zrotation Xrotation Yrotation
			JOINT Head
			{
				OFFSET	0.000000	4.185120	1.488260
				CHANNELS 3 Zrotation Xrotation Yrotation
				End Site
				{
					OFFSET	0.000000	7.773420	-0.106016
				}
			}
		}
	}
}
MOTION
Frames:     7
Frame Time: 0.016667
-0.174839	38.301571	-0.088512	-0.078096	0.096504	1.593756	1.051653	-0.220833	0.233108	-0.530600	-0.034140	-0.771099	-0.851487	0.516266	-0.959668	-0.307089	0.378445	-0.025021	0.449898	-0.901962	-1.307901	-0.076891	0.423406	-0.257082	0.397351	0.824104	1.408605	11.144204	-6.435457	-0.458688	65.658806	1.790672	11.397720	5.675736	0.059224	16.535486	11.141340	7.213841	-28.201221	-14.034600	-9.935994	0.303643	-66.269081	6.454859	-21.501390	-10.076509	5.926410	21.127844	-6.039994	4.267856	18.895107	0.569256	-2.540641	2.028210	5.684448	5.947401	-15.589997	
-0.175032	38.301914	-0.092587	-0.078096	0.096504	1.593756	1.051653	-0.220833	0.233108	-0.530064	-0.048229	-0.767321	-0.852180	0.530400	-0.963234	-0.307089	0.378445	-0.025021	0.465254	-0.904430	-1.302800	-0.092261	0.425532	-0.261938	0.401102	0.831222	1.417841	11.124104	-6.451082	-0.474983	65.641220	1.737663	11.470303	5.675821	0.034019	16.612638	11.059194	7.330052	-28.276440	-14.032411	-9.936131	0.284442	-66.276001	6.442905	-21.479652	-10.076424	5.931195	21.123625	-6.044340	4.293995	18.874641	0.565833	-2.569096	2.099021	5.755426	6.034108	-15.467969	
-0.177629	38.302425	-0.092252	-0.078096	0.096504	1.593756	1.060950	-0.213043	0.235510	-0.539181	-0.062139	-0.768032	-0.852462	0.536605	-0.964866	-0.307089	0.378445	-0.025021	0.478841	-0.906618	-1.298296	-0.105860	0.427417	-0.266224	0.412507	0.854038	1.440016	11.030308	-6.482208	-0.496927	65.587936	1.499045	11.711101	5.712669	-0.081258	16.876652	11.127969	7.503543	-28.699568	-14.029900	-9.938029	0.228806	-66.293968	6.407036	-21.458622	-10.082351	5.943651	21.162165	-6.040833	4.340295	18.839520	0.521453	-2.733352	2.234456	6.026982	6.325483	-15.161017	
-0.178383	38.302505	-0.091969	-0.078096	0.096504	1.593756	1.063342	-0.211443	0.241692	-0.541587	-0.063673	-0.774220	-0.852462	0.536605	-0.964866	-0.296317	0.390642	-0.008360	0.473833	-0.919930	-1.312924	-0.111891	0.428256	-0.268130	0.415874	0.861966	1.440456	10.997715	-6.467738	-0.468343	65.561386	1.371205	11.803110	5.741956	-0.134071	16.982716	10.934974	7.609985	-28.668991	-14.028653	-9.941586	0.218785	-66.299110	6.397667	-21.458780	-10.087796	5.952331	21.179457	-6.004827	4.343771	18.833900	0.511910	-2.757363	2.287528	6.104091	6.358841	-15.118979	
-0.178474	38.302517	-0.091923	-0.078096	0.096504	1.593756	1.063627	-0.211198	0.242518	-0.541874	-0.063908	-0.775050	-0.852462	0.536605	-0.964866	-0.290558	0.409207	0.003227	0.468713	-0.938719	-1.324133	-0.112715	0.428367	-0.268383	0.425146	0.884330	1.438955	10.937067	-6.443472	-0.405823	65.479477	1.056625	12.068014	5.809852	-0.343742	17.308123	10.911568	7.849902	-29.172903	-14.053252	-9.967752	0.238465	-66.245979	6.391748	-21.520185	-10.145910	5.968449	21.234720	-5.836317	4.359814	18.743683	0.515505	-2.811061	2.451815	6.276610	6.390518	-15.059377	
-0.178474	38.302517	-0.091923	-0.078096	0.096504	1.593756	1.063627	-0.211198	0.242518	-0.541874	-0.063908	-0.775050	-0.852462	0.536605	-0.964866	-0.283913	0.426230	0.006613	0.462011	-0.955767	-1.327434	-0.112715	0.428367	-0.268383	0.427971	0.891146	1.438499	10.877162	-6.443932	-0.396077	65.520790	0.912862	12.134714	5.827367	-0.343036	17.383715	10.838124	7.921807	-29.299026	-14.069233	-9.978643	0.244758	-66.208664	6.381280	-21.529037	-10.168725	5.982452	21.242016	-5.698718	4.385381	18.691526	0.511715	-2.824676	2.483809	6.338523	6.386707	-15.063504	
-0.178474	38.302517	-0.091923	-0.078096	0.096504	1.593756	1.063627	-0.211198	0.242518	-0.541874	-0.063908	-0.775050	-0.852462	0.536605	-0.964866	-0.272394	0.438561	0.007195	0.450480	-0.968103	-1.328000	-0.112715	0.428367	-0.268383	0.430953	0.898341	1.438016	10.729994	-6.513417	-0.470642	65.625359	0.930853	12.224813	5.898783	-0.575914	17.515125	10.610595	8.119003	-29.546822	-14.093997	-9.987035	0.244156	-66.097206	6.316147	-21.683771	-10.218383	6.002633	21.335348	-5.617654	4.431699	18.744146	0.478764	-2.839441	2.502886	6.462058	6.360888	-15.147145	
